<?xml version="1.0" encoding="UTF-8"?>
<svg width="55px" height="61px" viewBox="0 0 55 61" version="1.1" xmlns="http://www.w3.org/2000/svg" xmlns:xlink="http://www.w3.org/1999/xlink">
    <!-- Generator: Sketch 46.2 (44496) - http://www.bohemiancoding.com/sketch -->
    <title>logo-tree</title>
    <desc>Created with Sketch.</desc>
    <defs></defs>
    <g id="v2" stroke="none" stroke-width="1" fill="none" fill-rule="evenodd">
        <g id="Home--Desktop-2" transform="translate(-692.000000, -249.000000)">
            <g id="Logo/Mark/Color" transform="translate(693.000000, 249.000000)">
                <path d="M12.29604,34.1696214 L14.87376,31.5919014 L15.9272493,32.6453907 L21.61404,38.1961535 L21.61404,51.6633482 L17.4492184,54.9025797 C17.0780498,55.1912598 17.0111796,55.7261729 17.2998597,56.0973416 C17.5885398,56.4685102 18.1234529,56.5353804 18.4946216,56.2467003 L22.9881416,52.7518203 C23.1955356,52.5905175 23.31684,52.3424972 23.31684,52.07976 L23.31684,37.83744 C23.31684,37.6080592 23.2242844,37.3883824 23.0601351,37.228162 L17.1239751,31.434082 L15.4757907,29.7858093 C15.1432983,29.4533169 14.6042217,29.4533169 14.2717293,29.7858093 L10.8426093,33.2149293 C10.6829408,33.3745978 10.59324,33.5911547 10.59324,33.81696 L10.59324,38.0523786 L7.03500929,41.6106093 C6.7025169,41.9431017 6.7025169,42.4821783 7.03500929,42.8146707 C7.36750167,43.1471631 7.90657833,43.1471631 8.23907071,42.8146707 L12.0466707,39.0070707 C12.2063392,38.8474022 12.29604,38.6308453 12.29604,38.40504 L12.29604,34.1696214 Z M21.3066,21.2569014 L26.1301107,16.4333907 C26.4625977,16.1009037 26.4626039,15.5618378 26.1301246,15.2293431 L20.9154046,10.0143831 C20.755735,9.85470619 20.5391721,9.765 20.31336,9.765 L14.874,9.765 C14.4037848,9.765 14.0226,10.1461848 14.0226,10.6164 C14.0226,11.0866152 14.4037848,11.4678 14.874,11.4678 L19.9606871,11.4678 L24.3240324,15.8313461 L19.8531693,20.3022093 C19.6935008,20.4618778 19.6038,20.6784347 19.6038,20.90424 L19.6038,29.20536 C19.6038,29.4271099 19.6903162,29.6401102 19.8449455,29.799053 L24.68844,34.7776606 L24.68844,53.0041519 L20.4445132,57.2483054 C20.1120297,57.5808066 20.1120441,58.1198833 20.4445454,58.4523668 C20.7770466,58.7848503 21.3161233,58.7848359 21.6486068,58.4523346 L26.1418868,53.9588146 C26.3015454,53.7991475 26.39124,53.5825974 26.39124,53.3568 L26.39124,34.43184 C26.39124,34.2100901 26.3047238,33.9970898 26.1500945,33.838147 L21.3066,28.8595394 L21.3066,21.2569014 Z M32.16204,38.610123 L37.7470673,32.89476 L41.5057386,32.89476 L44.8974,36.2864214 L44.8974,41.71608 C44.8974,42.1862952 45.2785848,42.56748 45.7488,42.56748 C46.2190152,42.56748 46.6002,42.1862952 46.6002,41.71608 L46.6002,35.93376 C46.6002,35.7079547 46.5104992,35.4913978 46.3508307,35.3317293 L42.4604307,31.4413293 C42.3007622,31.2816608 42.0842053,31.19196 41.8584,31.19196 L37.38864,31.19196 C37.1594301,31.19196 36.939902,31.2843782 36.7797061,31.4483125 L30.7017061,37.6681525 C30.5462665,37.8272196 30.45924,38.0407954 30.45924,38.2632 L30.45924,52.07976 C30.45924,52.3424895 30.5805373,52.5905034 30.787921,52.7518067 L35.281201,56.2466867 C35.6523622,56.5353765 36.187277,56.4685201 36.4759667,56.097359 C36.7646565,55.7261978 36.6978001,55.191283 36.326639,54.9025933 L32.16204,51.6633619 L32.16204,38.610123 Z M6.00504,34.62108 L11.44464,34.62108 C11.9148552,34.62108 12.29604,34.2398952 12.29604,33.76968 C12.29604,33.2994648 11.9148552,32.91828 11.44464,32.91828 L6.00504,32.91828 C5.53482476,32.91828 5.15364,33.2994648 5.15364,33.76968 C5.15364,34.2398952 5.53482476,34.62108 6.00504,34.62108 Z M3.35533293,24.1215915 C3.02285282,23.7890869 2.48377615,23.789067 2.1512715,24.1215471 C1.81876685,24.4540272 1.81874696,24.9931038 2.15122707,25.3256085 L5.40298707,28.5776085 C5.56265735,28.7372906 5.77922379,28.827 6.00504,28.827 L12.1088586,28.827 L14.2717293,30.9898707 C14.6042217,31.3223631 15.1432983,31.3223631 15.4757907,30.9898707 C15.8082831,30.6573783 15.8082831,30.1183017 15.4757907,29.7858093 L13.0635507,27.3735693 C12.9038822,27.2139008 12.6873253,27.1242 12.46152,27.1242 L6.35771983,27.1242 L3.35533293,24.1215915 Z M34.59336,11.66364 C34.8191653,11.66364 35.0357222,11.5739392 35.1953907,11.4142707 L39.9046707,6.70499071 C40.2371631,6.37249833 40.2371631,5.83342167 39.9046707,5.50092929 C39.5721783,5.1684369 39.0331017,5.1684369 38.7006093,5.50092929 L34.2406986,9.96084 L30.53016,9.96084 C30.3043618,9.96084 30.087811,10.0505352 29.9281437,10.2101948 L24.9260637,15.2120348 C24.5935634,15.5445192 24.5935504,16.0835959 24.9260348,16.4160963 C25.2585192,16.7485966 25.7975959,16.7486096 26.1300963,16.4161252 L30.8828095,11.66364 L34.59336,11.66364 Z M50.70336,35.09412 L45.7488,35.09412 C45.2785848,35.09412 44.8974,35.4753048 44.8974,35.94552 C44.8974,36.4157352 45.2785848,36.79692 45.7488,36.79692 L50.70336,36.79692 C51.1735752,36.79692 51.55476,36.4157352 51.55476,35.94552 C51.55476,35.4753048 51.1735752,35.09412 50.70336,35.09412 Z M35.0010093,34.4811507 L37.7118093,37.1919507 C38.0443017,37.5244431 38.5833783,37.5244431 38.9158707,37.1919507 C39.2483631,36.8594583 39.2483631,36.3203817 38.9158707,35.9878893 L36.2050707,33.2770893 C35.8725783,32.9445969 35.3335017,32.9445969 35.0010093,33.2770893 C34.6685169,33.6095817 34.6685169,34.1486583 35.0010093,34.4811507 Z M50.70336,28.88604 C51.1735752,28.88604 51.55476,28.5048552 51.55476,28.03464 C51.55476,27.5644248 51.1735752,27.18324 50.70336,27.18324 L45.86712,27.18324 C45.6413147,27.18324 45.4247578,27.2729408 45.2650893,27.4326093 L41.2563693,31.4413293 C40.9238769,31.7738217 40.9238769,32.3128983 41.2563693,32.6453907 C41.5888617,32.9778831 42.1279383,32.9778831 42.4604307,32.6453907 L46.2197814,28.88604 L50.70336,28.88604 Z M49.9669447,22.7470739 L45.2811847,27.4325939 C44.9486838,27.7650777 44.94867,28.3041544 45.2811539,28.6366553 C45.6136377,28.9691562 46.1527144,28.96917 46.4852153,28.6366861 L51.1709753,23.9511661 C51.5034762,23.6186823 51.50349,23.0796056 51.1710061,22.7471047 C50.8385223,22.4146038 50.2994456,22.41459 49.9669447,22.7470739 Z M27.52644,34.43184 C27.52644,34.9020552 27.9076248,35.28324 28.37784,35.28324 C28.8480552,35.28324 29.22924,34.9020552 29.22924,34.43184 L29.22924,25.57512 C29.22924,25.3493271 29.139549,25.132781 28.979896,24.9731146 L26.124376,22.1173546 C25.7918976,21.7848482 25.2528209,21.7848256 24.9203146,22.117304 C24.5878082,22.4497824 24.5877856,22.9888591 24.920264,23.3213654 L27.52644,25.9277605 L27.52644,34.43184 Z M40.5596586,19.86684 L43.6669293,22.9741107 C43.9994217,23.3066031 44.5384983,23.3066031 44.8709907,22.9741107 C45.2034831,22.6416183 45.2034831,22.1025417 44.8709907,21.7700493 L41.5143507,18.4134093 C41.3546822,18.2537408 41.1381253,18.16404 40.91232,18.16404 L34.9596,18.16404 C34.7337947,18.16404 34.5172378,18.2537408 34.3575693,18.4134093 L28.6527693,24.1182093 C28.3202769,24.4507017 28.3202769,24.9897783 28.6527693,25.3222707 C28.9852617,25.6547631 29.5243383,25.6547631 29.8568307,25.3222707 L35.3122614,19.86684 L40.5596586,19.86684 Z M29.22924,34.7733289 L32.0679058,31.8039307 L35.7291507,28.1429907 C36.0616431,27.8104983 36.0616431,27.2714217 35.7291507,26.9389293 C35.3966583,26.6064369 34.8575817,26.6064369 34.5250893,26.9389293 L30.8504493,30.6135693 L27.7624142,33.8435093 C27.6109622,34.0019363 27.52644,34.2126669 27.52644,34.43184 L27.52644,53.3568 C27.52644,53.5826053 27.6161408,53.7991622 27.7758093,53.9588307 L32.2693293,58.4523507 C32.6018217,58.7848431 33.1408983,58.7848431 33.4733907,58.4523507 C33.8058831,58.1198583 33.8058831,57.5807817 33.4733907,57.2482893 L29.22924,53.0041386 L29.22924,34.7733289 Z M39.6392351,21.8629435 L34.5442751,26.9581435 C34.2117906,27.2906437 34.2118033,27.8297203 34.5443035,28.1622049 C34.8768037,28.4946894 35.4158803,28.4946767 35.7483649,28.1621765 L40.8433249,23.0669765 C41.1758094,22.7344763 41.1757967,22.1953997 40.8432965,21.8629151 C40.5107963,21.5304306 39.9717197,21.5304433 39.6392351,21.8629435 Z M40.91232,18.16404 C40.4421048,18.16404 40.06092,18.5452248 40.06092,19.01544 C40.06092,19.4856552 40.4421048,19.86684 40.91232,19.86684 L45.8832,19.86684 C46.1090053,19.86684 46.3255622,19.7771392 46.4852307,19.6174707 L49.5269907,16.5757107 C49.8594831,16.2432183 49.8594831,15.7041417 49.5269907,15.3716493 C49.1944983,15.0391569 48.6554217,15.0391569 48.3229293,15.3716493 L45.5305386,18.16404 L40.91232,18.16404 Z M34.3575804,18.4133981 C34.0250819,18.7458844 34.0250719,19.284961 34.3575581,19.6174596 C34.6900444,19.9499581 35.229121,19.9499681 35.5616196,19.6174819 L42.0399396,13.1394019 C42.1996149,12.9797325 42.28932,12.7631708 42.28932,12.53736 L42.28932,7.75488 C42.28932,7.28466476 41.9081352,6.90348 41.43792,6.90348 C40.9677048,6.90348 40.58652,7.28466476 40.58652,7.75488 L40.58652,12.1846893 L34.3575804,18.4133981 Z M5.99675071,14.5208493 C5.66425833,14.1883569 5.12518167,14.1883569 4.79268929,14.5208493 C4.4601969,14.8533417 4.4601969,15.3924183 4.79268929,15.7249107 L6.63300929,17.5652307 C6.79267776,17.7248992 7.00923468,17.8146 7.23504,17.8146 L12.0531786,17.8146 L19.8531693,25.6145907 C20.1856617,25.9470831 20.7247383,25.9470831 21.0572307,25.6145907 C21.3897231,25.2820983 21.3897231,24.7430217 21.0572307,24.4105293 L13.0078707,16.3611693 C12.8482022,16.2015008 12.6316453,16.1118 12.40584,16.1118 L7.58770143,16.1118 L5.99675071,14.5208493 Z M15.4458093,20.0031693 L12.7818093,22.6671693 C12.4493169,22.9996617 12.4493169,23.5387383 12.7818093,23.8712307 C13.1143017,24.2037231 13.6533783,24.2037231 13.9858707,23.8712307 L16.6498707,21.2072307 C16.9823631,20.8747383 16.9823631,20.3356617 16.6498707,20.0031693 C16.3173783,19.6706769 15.7783017,19.6706769 15.4458093,20.0031693 Z M12.1273293,7.87523071 L15.4582893,11.2061907 C15.7907817,11.5386831 16.3298583,11.5386831 16.6623507,11.2061907 C16.9948431,10.8736983 16.9948431,10.3346217 16.6623507,10.0021293 L13.3313907,6.67116929 C12.9988983,6.3386769 12.4598217,6.3386769 12.1273293,6.67116929 C11.7948369,7.00366167 11.7948369,7.54273833 12.1273293,7.87523071 Z M24.54672,15.6066 C25.0169352,15.6066 25.39812,15.2254152 25.39812,14.7552 C25.39812,14.2849848 25.0169352,13.9038 24.54672,13.9038 L19.43832,13.9038 C19.2125147,13.9038 18.9959578,13.9935008 18.8362893,14.1531693 L16.0947693,16.8946893 C15.7622769,17.2271817 15.7622769,17.7662583 16.0947693,18.0987507 C16.4272617,18.4312431 16.9663383,18.4312431 17.2988307,18.0987507 L19.7909814,15.6066 L24.54672,15.6066 Z M35.9106,4.8624 L35.9106,8.6436 C35.9106,9.11381524 36.2917848,9.495 36.762,9.495 C37.2322152,9.495 37.6134,9.11381524 37.6134,8.6436 L37.6134,4.8624 C37.6134,4.39218476 37.2322152,4.011 36.762,4.011 C36.2917848,4.011 35.9106,4.39218476 35.9106,4.8624 Z M34.1439507,14.5157907 C34.4764431,14.1832983 34.4764431,13.6442217 34.1439507,13.3117293 C33.8114583,12.9792369 33.2723817,12.9792369 32.9398893,13.3117293 L29.5081293,16.7434893 C29.1756369,17.0759817 29.1756369,17.6150583 29.5081293,17.9475507 L32.7678093,21.2072307 C33.1003017,21.5397231 33.6393783,21.5397231 33.9718707,21.2072307 C34.3043631,20.8747383 34.3043631,20.3356617 33.9718707,20.0031693 L31.3142214,17.34552 L34.1439507,14.5157907 Z M41.43792,13.38876 L43.75032,13.38876 C44.2205352,13.38876 44.60172,13.0075752 44.60172,12.53736 C44.60172,12.0671448 44.2205352,11.68596 43.75032,11.68596 L41.43792,11.68596 C40.9677048,11.68596 40.58652,12.0671448 40.58652,12.53736 C40.58652,13.0075752 40.9677048,13.38876 41.43792,13.38876 Z M29.67876,10.81224 C29.67876,11.2824552 30.0599448,11.66364 30.53016,11.66364 C31.0003752,11.66364 31.38156,11.2824552 31.38156,10.81224 L31.38156,7.2732 C31.38156,7.04739468 31.2918592,6.83083776 31.1321907,6.67116929 L28.9505907,4.48956929 C28.6180983,4.1570769 28.0790217,4.1570769 27.7465293,4.48956929 C27.4140369,4.82206167 27.4140369,5.36113833 27.7465293,5.69363071 L29.67876,7.62586143 L29.67876,10.81224 Z M31.0357293,2.68404929 L28.4883693,5.23140929 C28.1558769,5.56390167 28.1558769,6.10297833 28.4883693,6.43547071 C28.8208617,6.7679631 29.3599383,6.7679631 29.6924307,6.43547071 L32.2397907,3.88811071 C32.5722831,3.55561833 32.5722831,3.01654167 32.2397907,2.68404929 C31.9072983,2.3515569 31.3682217,2.3515569 31.0357293,2.68404929 Z M19.7113293,10.0143693 C19.3788369,10.3468617 19.3788369,10.8859383 19.7113293,11.2184307 C20.0438217,11.5509231 20.5828983,11.5509231 20.9153907,11.2184307 L23.8006707,8.33315071 C23.9603392,8.17348224 24.05004,7.95692532 24.05004,7.73112 L24.05004,3.1116 C24.05004,2.64138476 23.6688552,2.2602 23.19864,2.2602 C22.7284248,2.2602 22.34724,2.64138476 22.34724,3.1116 L22.34724,7.37845857 L19.7113293,10.0143693 Z M26.8764,6.90348 L23.19864,6.90348 C22.7284248,6.90348 22.34724,7.28466476 22.34724,7.75488 C22.34724,8.22509524 22.7284248,8.60628 23.19864,8.60628 L26.8764,8.60628 C27.3466152,8.60628 27.7278,8.22509524 27.7278,7.75488 C27.7278,7.28466476 27.3466152,6.90348 26.8764,6.90348 Z M24.68844,53.3568 L24.68844,59.22888 C24.68844,59.6990952 25.0696248,60.08028 25.53984,60.08028 C26.0100552,60.08028 26.39124,59.6990952 26.39124,59.22888 L26.39124,53.3568 C26.39124,52.8865848 26.0100552,52.5054 25.53984,52.5054 C25.0696248,52.5054 24.68844,52.8865848 24.68844,53.3568 Z M27.52644,53.3568 L27.52644,59.22888 C27.52644,59.6990952 27.9076248,60.08028 28.37784,60.08028 C28.8480552,60.08028 29.22924,59.6990952 29.22924,59.22888 L29.22924,53.3568 C29.22924,52.8865848 28.8480552,52.5054 28.37784,52.5054 C27.9076248,52.5054 27.52644,52.8865848 27.52644,53.3568 Z" id="Stroke-1" fill="#9E9F9E" fill-rule="nonzero"></path>
                <path d="M47.5608,44.70144 L44.23272,44.70144 C43.78344,44.70144 43.41936,44.33736 43.41936,43.88832 L43.41936,40.56024 C43.41936,40.11096 43.78344,39.74688 44.23272,39.74688 L47.5608,39.74688 C48.00984,39.74688 48.37416,40.11096 48.37416,40.56024 L48.37416,43.88832 C48.37416,44.33736 48.00984,44.70144 47.5608,44.70144 Z M53.0412,31.03776 L48.66144,31.03776 C48.2124,31.03776 47.84808,30.67368 47.84808,30.2244 L47.84808,25.84464 C47.84808,25.3956 48.2124,25.03152 48.66144,25.03152 L53.0412,25.03152 C53.49048,25.03152 53.85456,25.3956 53.85456,25.84464 L53.85456,30.2244 C53.85456,30.67368 53.49048,31.03776 53.0412,31.03776 Z M51.00048,18.86664 L47.1456,18.86664 C46.69632,18.86664 46.33224,18.50256 46.33224,18.05328 L46.33224,14.1984 C46.33224,13.74936 46.69632,13.38528 47.1456,13.38528 L51.00048,13.38528 C51.44952,13.38528 51.81384,13.74936 51.81384,14.1984 L51.81384,18.05328 C51.81384,18.50256 51.44952,18.86664 51.00048,18.86664 Z M43.77576,10.758 L39.396,10.758 C38.94672,10.758 38.58264,10.39392 38.58264,9.94464 L38.58264,5.56488 C38.58264,5.11584 38.94672,4.75176 39.396,4.75176 L43.77576,4.75176 C44.2248,4.75176 44.58912,5.11584 44.58912,5.56488 L44.58912,9.94464 C44.58912,10.39392 44.2248,10.758 43.77576,10.758 Z M32.82,5.13336 L30.75168,5.13336 C30.3024,5.13336 29.93832,4.76928 29.93832,4.32024 L29.93832,2.25168 C29.93832,1.80264 30.3024,1.43856 30.75168,1.43856 L32.82,1.43856 C33.26928,1.43856 33.63336,1.80264 33.63336,2.25168 L33.63336,4.32024 C33.63336,4.76928 33.26928,5.13336 32.82,5.13336 Z M51.8856,37.79304 L49.81728,37.79304 C49.368,37.79304 49.00392,37.42896 49.00392,36.97968 L49.00392,34.91136 C49.00392,34.46208 49.368,34.098 49.81728,34.098 L51.8856,34.098 C52.33464,34.098 52.69896,34.46208 52.69896,34.91136 L52.69896,36.97968 C52.69896,37.42896 52.33464,37.79304 51.8856,37.79304 Z M25.53648,6.11496 L21.15672,6.11496 C20.70744,6.11496 20.34336,5.75064 20.34336,5.3016 L20.34336,0.92184 C20.34336,0.47256 20.70744,0.10848 21.15672,0.10848 L25.53648,0.10848 C25.98576,0.10848 26.34984,0.47256 26.34984,0.92184 L26.34984,5.3016 C26.34984,5.75064 25.98576,6.11496 25.53648,6.11496 Z M14.77728,9.98664 L10.97712,9.98664 C10.52808,9.98664 10.16376,9.62232 10.16376,9.17328 L10.16376,5.37312 C10.16376,4.92384 10.52808,4.55976 10.97712,4.55976 L14.77728,4.55976 C15.22656,4.55976 15.59064,4.92384 15.59064,5.37312 L15.59064,9.17328 C15.59064,9.62232 15.22656,9.98664 14.77728,9.98664 Z M7.31496,17.7084 L3.7704,17.7084 C3.32112,17.7084 2.95704,17.34432 2.95704,16.89528 L2.95704,13.35072 C2.95704,12.90144 3.32112,12.53736 3.7704,12.53736 L7.31496,12.53736 C7.764,12.53736 8.12832,12.90144 8.12832,13.35072 L8.12832,16.89528 C8.12832,17.34432 7.764,17.7084 7.31496,17.7084 Z M19.03464,20.49984 L14.65488,20.49984 C14.20584,20.49984 13.84176,20.13576 13.84176,19.68648 L13.84176,15.30672 C13.84176,14.85744 14.20584,14.49336 14.65488,14.49336 L19.03464,14.49336 C19.48392,14.49336 19.848,14.85744 19.848,15.30672 L19.848,19.68648 C19.848,20.13576 19.48392,20.49984 19.03464,20.49984 Z M5.09112,27.72672 L0.71136,27.72672 C0.26208,27.72672 -0.102,27.36264 -0.102,26.9136 L-0.102,22.53384 C-0.102,22.08456 0.26208,21.72048 0.71136,21.72048 L5.09112,21.72048 C5.5404,21.72048 5.90448,22.08456 5.90448,22.53384 L5.90448,26.9136 C5.90448,27.36264 5.5404,27.72672 5.09112,27.72672 Z M6.3744,36.54264 L2.67408,36.54264 C2.2248,36.54264 1.86072,36.17856 1.86072,35.72928 L1.86072,32.02872 C1.86072,31.57968 2.2248,31.2156 2.67408,31.2156 L6.3744,31.2156 C6.82368,31.2156 7.18776,31.57968 7.18776,32.02872 L7.18776,35.72928 C7.18776,36.17856 6.82368,36.54264 6.3744,36.54264 Z M16.50552,32.68488 L13.53816,32.68488 C13.08888,32.68488 12.7248,32.32056 12.7248,31.87152 L12.7248,28.90416 C12.7248,28.45488 13.08888,28.0908 13.53816,28.0908 L16.50552,28.0908 C16.9548,28.0908 17.31888,28.45488 17.31888,28.90416 L17.31888,31.87152 C17.31888,32.32056 16.9548,32.68488 16.50552,32.68488 Z M44.19456,26.8872 L39.8148,26.8872 C39.36552,26.8872 39.00144,26.52312 39.00144,26.07408 L39.00144,21.69408 C39.00144,21.24504 39.36552,20.88096 39.8148,20.88096 L44.19456,20.88096 C44.64384,20.88096 45.00792,21.24504 45.00792,21.69408 L45.00792,26.07408 C45.00792,26.52312 44.64384,26.8872 44.19456,26.8872 Z M38.47032,19.87032 L35.34936,19.87032 C34.90032,19.87032 34.53624,19.50624 34.53624,19.05696 L34.53624,15.93624 C34.53624,15.48696 34.90032,15.12288 35.34936,15.12288 L38.47032,15.12288 C38.9196,15.12288 39.28368,15.48696 39.28368,15.93624 L39.28368,19.05696 C39.28368,19.50624 38.9196,19.87032 38.47032,19.87032 Z M27.618,23.83704 L25.0116,23.83704 C24.56232,23.83704 24.19824,23.47296 24.19824,23.02368 L24.19824,20.41704 C24.19824,19.968 24.56232,19.60392 25.0116,19.60392 L27.618,19.60392 C28.06728,19.60392 28.43136,19.968 28.43136,20.41704 L28.43136,23.02368 C28.43136,23.47296 28.06728,23.83704 27.618,23.83704 Z M29.99736,16.3884 L25.6176,16.3884 C25.16856,16.3884 24.80424,16.02432 24.80424,15.57504 L24.80424,11.19528 C24.80424,10.74624 25.16856,10.38192 25.6176,10.38192 L29.99736,10.38192 C30.44664,10.38192 30.81072,10.74624 30.81072,11.19528 L30.81072,15.57504 C30.81072,16.02432 30.44664,16.3884 29.99736,16.3884 Z M26.88456,35.64264 L22.5048,35.64264 C22.05552,35.64264 21.69144,35.27832 21.69144,34.82928 L21.69144,30.44952 C21.69144,30.00024 22.05552,29.63616 22.5048,29.63616 L26.88456,29.63616 C27.3336,29.63616 27.69792,30.00024 27.69792,30.44952 L27.69792,34.82928 C27.69792,35.27832 27.3336,35.64264 26.88456,35.64264 Z M40.24416,39.30072 L36.44904,39.30072 C36,39.30072 35.63592,38.93664 35.63592,38.4876 L35.63592,34.69248 C35.63592,34.2432 36,33.87912 36.44904,33.87912 L40.24416,33.87912 C40.69344,33.87912 41.05752,34.2432 41.05752,34.69248 L41.05752,38.4876 C41.05752,38.93664 40.69344,39.30072 40.24416,39.30072 Z M35.91888,32.07168 L31.53888,32.07168 C31.08984,32.07168 30.72576,31.7076 30.72576,31.25856 L30.72576,26.87856 C30.72576,26.42952 31.08984,26.06544 31.53888,26.06544 L35.91888,26.06544 C36.36792,26.06544 36.732,26.42952 36.732,26.87856 L36.732,31.25856 C36.732,31.7076 36.36792,32.07168 35.91888,32.07168 Z M9.35064,44.60304 L6.21936,44.60304 C5.77032,44.60304 5.406,44.23896 5.406,43.78968 L5.406,40.65864 C5.406,40.20936 5.77032,39.84528 6.21936,39.84528 L9.35064,39.84528 C9.79968,39.84528 10.16376,40.20936 10.16376,40.65864 L10.16376,43.78968 C10.16376,44.23896 9.79968,44.60304 9.35064,44.60304 Z M21.90888,42.87 L18.132,42.87 C17.68296,42.87 17.31888,42.50568 17.31888,42.05664 L17.31888,38.27976 C17.31888,37.83048 17.68296,37.4664 18.132,37.4664 L21.90888,37.4664 C22.35816,37.4664 22.72224,37.83048 22.72224,38.27976 L22.72224,42.05664 C22.72224,42.50568 22.35816,42.87 21.90888,42.87 Z" id="Combined-Shape" fill="#60BFBF" fill-rule="evenodd"></path>
            </g>
        </g>
    </g>
</svg>