<?xml version="1.0" encoding="UTF-8"?>
<svg width="326px" height="24px" viewBox="0 0 326 24" version="1.1" xmlns="http://www.w3.org/2000/svg" xmlns:xlink="http://www.w3.org/1999/xlink">
    <defs></defs>
    <g id="v2" stroke="none" stroke-width="1" fill="none" fill-rule="evenodd">
        <g id="logo-color">
            <path d="M172.743673,23.738449 L162.759184,23.738449 L162.759184,0.929632653 L171.634286,0.929632653 C173.179102,0.929632653 174.510857,1.11477551 175.632,1.48457143 C176.752163,1.85485714 177.594612,2.35493878 178.160816,2.98530612 C179.18302,4.16032653 179.693878,5.48767347 179.693878,6.96636735 C179.693878,8.75069388 179.117878,10.077551 177.964898,10.9474286 C177.573061,11.2520816 177.301224,11.4426122 177.148898,11.5185306 C176.996571,11.5949388 176.724735,11.7198367 176.333388,11.8937143 C177.746939,12.1988571 178.87298,12.835102 179.710531,13.802449 C180.548082,14.7707755 180.966857,15.9727347 180.966857,17.4083265 C180.966857,18.9967347 180.422694,20.3995102 179.335347,21.6176327 C178.073633,23.0321633 175.876898,23.738449 172.743673,23.738449 Z M191.278041,17.8486531 C192.126367,18.9041633 193.268571,19.4311837 194.704163,19.4311837 C196.140245,19.4311837 197.276571,18.9041633 198.114122,17.8486531 C198.951673,16.7941224 199.370449,15.3526531 199.370449,13.5252245 L199.370449,0.929632653 L204.460898,0.929632653 L204.460898,13.6883265 C204.460898,16.9954286 203.547429,19.5345306 201.72,21.3080816 C199.892571,23.0811429 197.553796,23.9671837 194.704163,23.9671837 C191.854531,23.9671837 189.510367,23.0752653 187.672653,21.2914286 C185.833959,19.5080816 184.915102,16.9733878 184.915102,13.6883265 L184.915102,0.929632653 L190.005551,0.929632653 L190.005551,13.5252245 C190.005551,15.3526531 190.429714,16.7941224 191.278041,17.8486531 Z M209.746776,23.738449 L209.746776,0.929632653 L214.836735,0.929632653 L214.836735,23.738449 L209.746776,23.738449 Z M220.448816,23.738449 L220.448816,0.929632653 L225.539265,0.929632653 L225.539265,19.2029388 L235.263673,19.2029388 L235.263673,23.738449 L220.448816,23.738449 Z M256.408163,3.91542857 C258.582857,5.90595918 259.671184,8.67477551 259.671184,12.2199184 C259.671184,15.7660408 258.610776,18.5725714 256.489959,20.6385306 C254.368163,22.7054694 251.132571,23.738449 246.781714,23.738449 L238.983184,23.738449 L238.983184,0.929632653 L247.042776,0.929632653 C251.110531,0.929632653 254.23249,1.92489796 256.408163,3.91542857 Z M280.522286,0.929632653 L280.522286,5.46563265 L269.165878,5.46563265 L269.165878,10.1647347 L279.380082,10.1647347 L279.380082,14.5043265 L269.165878,14.5043265 L269.165878,19.2357551 L280.880816,19.2357551 L280.880816,23.738449 L264.075918,23.738449 L264.075918,0.929632653 L280.522286,0.929632653 Z M303.918367,8.49991837 C303.918367,12.1547755 302.470531,14.515102 299.577796,15.580898 L305.353469,23.738449 L299.08849,23.738449 L294.030857,16.4620408 L290.506776,16.4620408 L290.506776,23.738449 L285.416327,23.738449 L285.416327,0.929632653 L294.063184,0.929632653 C297.609306,0.929632653 300.138122,1.52865306 301.650122,2.7242449 C303.162122,3.92081633 303.918367,5.84620408 303.918367,8.49991837 Z M314.473469,5.48179592 C313.984163,5.88440816 313.739265,6.41730612 313.739265,7.08097959 C313.739265,7.74465306 314.038531,8.27167347 314.636571,8.66302041 C315.234612,9.05485714 316.615837,9.51722449 318.780735,10.0501224 C320.945143,10.5835102 322.625633,11.3828571 323.822204,12.4486531 C325.018286,13.514449 325.616816,15.0700408 325.616816,17.114449 C325.616816,19.1598367 324.850286,20.8182857 323.316245,22.0907755 C321.782694,23.3632653 319.764735,24 317.263837,24 C313.652571,24 310.399837,22.6618776 307.507102,19.9861224 L310.541388,16.2666122 C312.999673,18.4197551 315.272816,19.4963265 317.361306,19.4963265 C318.296327,19.4963265 319.030531,19.2955102 319.563918,18.892898 C320.096816,18.4907755 320.363755,17.9466122 320.363755,17.2613878 C320.363755,16.5761633 320.080653,16.0324898 319.514939,15.6298776 C318.949224,15.2272653 317.829061,14.8197551 316.153959,14.4063673 C313.499755,13.776 311.558204,12.9541224 310.329306,11.9426939 C309.100408,10.9312653 308.486204,9.34334694 308.486204,7.17844898 C308.486204,5.01453061 309.26351,3.34481633 310.818612,2.16979592 C312.373714,0.995265306 314.315265,0.408 316.643265,0.408 C318.165551,0.408 319.688816,0.669061224 321.211592,1.19069388 C322.734367,1.71330612 324.061224,2.45240816 325.192653,3.40995918 L322.614857,7.12946939 C320.635102,5.62873469 318.590204,4.87836735 316.480163,4.87836735 C315.632327,4.87836735 314.962776,5.07967347 314.473469,5.48179592 Z M167.849143,19.4311837 L171.340898,19.4311837 C172.797551,19.4311837 173.891265,19.2519184 174.620082,18.892898 C175.348408,18.5338776 175.713306,17.8275918 175.713306,16.7720816 C175.713306,15.7170612 175.326367,15.021551 174.554939,14.6835918 C173.782531,14.3466122 172.548245,14.1781224 170.851592,14.1781224 L167.849143,14.1781224 L167.849143,19.4311837 Z M167.849143,10.1647347 L170.264327,10.1647347 C171.677878,10.1647347 172.72751,10.0124082 173.412735,9.70726531 C174.098449,9.40310204 174.440816,8.74481633 174.440816,7.73338776 C174.440816,6.72146939 174.124898,6.05289796 173.494041,5.72669388 C172.863184,5.4 171.797388,5.23689796 170.296653,5.23689796 L167.849143,5.23689796 L167.849143,10.1647347 Z M252.672,17.4734694 C253.922449,16.2989388 254.548408,14.5915102 254.548408,12.3502041 C254.548408,10.1103673 253.922449,8.38628571 252.672,7.17844898 C251.420571,5.97110204 249.501061,5.36767347 246.91249,5.36767347 L244.073633,5.36767347 L244.073633,19.2357551 L247.304327,19.2357551 C249.631837,19.2357551 251.420571,18.6484898 252.672,17.4734694 Z M297.783184,11.2084898 C298.414041,10.6427755 298.729959,9.74546939 298.729959,8.51608163 C298.729959,7.28816327 298.403265,6.44473469 297.750857,5.98726531 C297.098449,5.53077551 295.956245,5.30253061 294.324735,5.30253061 L290.506776,5.30253061 L290.506776,12.0568163 L294.226286,12.0568163 C295.966531,12.0568163 297.152327,11.7746939 297.783184,11.2084898 Z" id="builders" fill="#9D9E9D"></path>
            <path d="M11.3226122,15.4506122 L17.131102,0.929632653 L22.6457143,0.929632653 L13.4762449,23.738449 L9.16897959,23.738449 L0,0.929632653 L5.51461224,0.929632653 L11.3226122,15.4506122 Z M41.7991837,0.929632653 L41.7991837,5.46563265 L30.4437551,5.46563265 L30.4437551,10.1647347 L40.6574694,10.1647347 L40.6574694,14.5043265 L30.4437551,14.5043265 L30.4437551,19.2357551 L42.1582041,19.2357551 L42.1582041,23.738449 L25.3537959,23.738449 L25.3537959,0.929632653 L41.7991837,0.929632653 Z M62.6502857,0.929632653 L67.7402449,0.929632653 L67.7402449,23.738449 L62.6502857,23.738449 L51.7841633,9.44669388 L51.7841633,23.738449 L46.6937143,23.738449 L46.6937143,0.929632653 L51.4579592,0.929632653 L62.6502857,15.6137143 L62.6502857,0.929632653 Z M83.011102,5.33485714 L83.011102,23.738449 L77.9206531,23.738449 L77.9206531,5.33485714 L71.4597551,5.33485714 L71.4597551,0.929632653 L89.472,0.929632653 L89.472,5.33485714 L83.011102,5.33485714 Z M99.2282449,17.8486531 C100.076571,18.9041633 101.218776,19.4311837 102.654367,19.4311837 C104.090449,19.4311837 105.226776,18.9041633 106.064327,17.8486531 C106.901388,16.7941224 107.320653,15.3526531 107.320653,13.5252245 L107.320653,0.929632653 L112.411102,0.929632653 L112.411102,13.6883265 C112.411102,16.9954286 111.497143,19.5345306 109.670204,21.3080816 C107.842776,23.0811429 105.504,23.9671837 102.654367,23.9671837 C99.8042449,23.9671837 97.4605714,23.0752653 95.6223673,21.2914286 C93.7841633,19.5080816 92.8653061,16.9733878 92.8653061,13.6883265 L92.8653061,0.929632653 L97.9557551,0.929632653 L97.9557551,13.5252245 C97.9557551,15.3526531 98.3799184,16.7941224 99.2282449,17.8486531 Z M136.198531,8.49991837 C136.198531,12.1547755 134.751673,14.515102 131.858449,15.580898 L137.634122,23.738449 L131.369143,23.738449 L126.31151,16.4620408 L122.786939,16.4620408 L122.786939,23.738449 L117.69698,23.738449 L117.69698,0.929632653 L126.343837,0.929632653 C129.889469,0.929632653 132.418286,1.52865306 133.930776,2.7242449 C135.442286,3.92081633 136.198531,5.84620408 136.198531,8.49991837 Z M130.063837,11.2084898 C130.694694,10.6427755 131.010122,9.74546939 131.010122,8.51608163 C131.010122,7.28816327 130.683918,6.44473469 130.03102,5.98726531 C129.378612,5.53077551 128.236408,5.30253061 126.604898,5.30253061 L122.786939,5.30253061 L122.786939,12.0568163 L126.507429,12.0568163 C128.247184,12.0568163 129.43249,11.7746939 130.063837,11.2084898 Z M157.864653,0.929632653 L157.864653,5.46563265 L146.509224,5.46563265 L146.509224,10.1647347 L156.722939,10.1647347 L156.722939,14.5043265 L146.509224,14.5043265 L146.509224,19.2357551 L158.223673,19.2357551 L158.223673,23.738449 L141.418776,23.738449 L141.418776,0.929632653 L157.864653,0.929632653 Z" id="venture" fill="#60BFBF"></path>
        </g>
    </g>
</svg>
