<svg xmlns="http://www.w3.org/2000/svg" id="svg32" width="211.681" height="45.037"><defs id="defs4"><style id="style2">.cls-1{fill:#fff}</style></defs><g id="g3772" transform="translate(.42 .517)" fill="#fff"><g id="g3760"><path class="cls-1" d="M42.75 33.85a2.58 2.58 0 0 1-.75 1.59 2.41 2.41 0 0 1-3.23 0c-1.32-1-2.62-2-3.93-3l-1.65-1.26-9.83-7.51-.48-.36-.79 1.12-1.54 2.18-1.18-.83-8.08-5.68 6.08-8.65.15-.22.28-.39 9.2 6.55-.56.8-1.74 2.48a3.21 3.21 0 0 0 .31.24l10.56 6.79a19.14 19.14 0 1 0-3.38 4.52l.2.15 1.84 1.4c1.46 1.12 2.91 2.24 4.38 3.35a2.69 2.69 0 0 0 3.6-.05 2.59 2.59 0 0 0 .54-3.22zM18.11 7.68a1.74 1.74 0 0 1 1.69-1.12 7.34 7.34 0 0 1 .88.45q4.51 3.15 9 6.32a1.64 1.64 0 0 1 .77 1.82 1.57 1.57 0 0 1-1.17 1.16 1.41 1.41 0 0 1-.29 0 2 2 0 0 1-1.07-.31q-4.61-3.19-9.17-6.42a1.83 1.83 0 0 1-.35-.32 1.52 1.52 0 0 1-.29-1.58zm2 22.2A1.73 1.73 0 0 1 18.5 31a5.43 5.43 0 0 1-.85-.41q-4.55-3.17-9.08-6.37a1.62 1.62 0 0 1-.49-2.34 1.54 1.54 0 0 1 1.65-.61 2 2 0 0 1 .72.31l8 5.6 1.08.76a1.6 1.6 0 0 1 .62 1.94z" id="path10"/><path id="path12" d="M112.69 17.41a.82.82 0 0 0-.37.14l-.56.33-1.09.67a13.32 13.32 0 0 1-2.58 1 7.89 7.89 0 0 0-1.58-5 4.31 4.31 0 0 0-3.32-1.9 5.2 5.2 0 0 0-3.09.93 5.48 5.48 0 0 0-4.71 2.74 10.27 10.27 0 0 0-1.84 5.83v.07a24.74 24.74 0 0 1-2 3.28q-1.39 1.93-2.18 2-.51 0-.51-2.85t.19-6.65q3.67-7.48 3.67-13.51a4.56 4.56 0 0 0-.37-1.74 1.26 1.26 0 0 0-1.21-.91q-3.57 0-4.55 7.38a127.21 127.21 0 0 0-1.15 13.08 25.37 25.37 0 0 1-2 3.29q-1.39 1.93-2.18 2-.51 0-.51-2.85t.18-6.74q3.67-7.48 3.67-13.51a4.62 4.62 0 0 0-.37-1.74A1.26 1.26 0 0 0 83 1.81q-3.57 0-4.55 7.38c-.64 5-1 9.05-1.13 12.3a25.51 25.51 0 0 1-2.2 3.51 7.15 7.15 0 0 1-2 1.86 4.86 4.86 0 0 1-2.51.65 3.06 3.06 0 0 1-2.44-1.32A5.94 5.94 0 0 1 66.91 23a9.3 9.3 0 0 0 5.73-2A5.77 5.77 0 0 0 75 16.39 2.91 2.91 0 0 0 74 14a3.91 3.91 0 0 0-2.6-.86 6.83 6.83 0 0 0-5.53 2.6 10.82 10.82 0 0 0-2.09 6.34 25.55 25.55 0 0 1-2 3.43q-1.39 1.93-2.18 2c-.19 0-.28-.35-.28-1s.15-2.37.44-5a59.94 59.94 0 0 0 .44-6 2 2 0 0 0-.77-1.63 2.63 2.63 0 0 0-1.74-.65 3.32 3.32 0 0 0-2.2 1.35 29.22 29.22 0 0 0-3 4.23c-1.18 1.92-1.83 3-1.95 3.16v-3.62A22.79 22.79 0 0 0 53.25 13a20.49 20.49 0 0 0 1.35-7.52 6.45 6.45 0 0 0-.46-2.65c-.31-.68-.62-1-.93-1a3.26 3.26 0 0 0-2 .74Q47 5.8 47 17.69v2.7q0 1.58-.26 4.71c-.17 2.09-.26 3.31-.26 3.67 0 .36.34.63 1 .84a7.59 7.59 0 0 0 2.14.3c.49 0 .74-.43.74-1.3v-1.44a18.17 18.17 0 0 1 .28-3.06q.11-.89 2.36-4.11t2.81-3.18c.36 0 .53.51.53 1.53s-.08 2.56-.26 4.62-.26 3.54-.26 4.46a2.74 2.74 0 0 0 .33 1.7 4.33 4.33 0 0 0 2.74.74c1.36 0 3-1.77 4.88-5.24a7.12 7.12 0 0 0 1.44 3.27 5 5 0 0 0 4.13 2q4.5 0 7.57-5l.38-.64c0 2.9.18 4.53.46 4.87a2.38 2.38 0 0 0 1 .49 6.6 6.6 0 0 0 1.88.26c1.33 0 2.92-1.69 4.75-5 0 2.52.19 3.95.45 4.26a2.38 2.38 0 0 0 1 .49 6.6 6.6 0 0 0 1.88.26c1.39 0 3.06-1.83 5-5.44a8.84 8.84 0 0 0 1.28 3.14 5 5 0 0 0 4.41 2.3 7.69 7.69 0 0 0 6.08-2.42 10.58 10.58 0 0 0 2.52-6.3 16 16 0 0 0 3.57-1.88q1.44-1 1.44-1.46c.05-.28-.08-.42-.32-.42zm-21.5-14c.25 0 .37.49.37 1.48q0 3.72-2.42 10.08.66-11.58 2.05-11.58zm-8.13 0c.25 0 .37.49.37 1.48q0 3.72-2.42 10.08.66-11.58 2.05-11.58zm-15 13.54q1.12-2.26 2.74-2.25c.9 0 1.35.7 1.35 2.09a4.64 4.64 0 0 1-1.28 3.39 7.19 7.19 0 0 1-4 1.76 12 12 0 0 1 1.24-5.02zM51.21 9.7q.79-5.15 1.63-5.15c.34 0 .51.65.51 1.95q0 3.85-2.74 9.57.18-3.63.6-6.37zm52.56 16.41a3.52 3.52 0 0 1-3.11 1.7 3.06 3.06 0 0 1-2.93-2 10 10 0 0 1-.93-4.25q0-4.64 2-6.22a6.3 6.3 0 0 0-.51 2.66 3.69 3.69 0 0 0 1.49 2.81 5.37 5.37 0 0 0 3.62 1.27l1.67-.09a8.59 8.59 0 0 1-1.3 4.13zm.79-5.87a4 4 0 0 1-2.76-1.07 3.58 3.58 0 0 1-1.18-2.78 2.76 2.76 0 0 1 .42-1.46 1.3 1.3 0 0 1 1.16-.67q1.48 0 2.16 1.86a13.88 13.88 0 0 1 .77 4.13z" class="cls-1"/><path class="cls-1" d="M128.82 17.69a10.17 10.17 0 0 0-3-2.58q-1.74-1-3.48-1.86a13.4 13.4 0 0 1-3-2 3.32 3.32 0 0 1-1.23-2.56A3.88 3.88 0 0 1 119.53 6a4.49 4.49 0 0 1 3.23-1.32q3.21 0 3.39 2.51l-.23 1.2c0 .47.37.7 1 .7a1.79 1.79 0 0 0 1.51-.74 3 3 0 0 0 .57-1.9 3.1 3.1 0 0 0-1.91-2.83 9.09 9.09 0 0 0-4.13-.93 10.37 10.37 0 0 0-6.06 1.86 5.77 5.77 0 0 0-2.67 5 4.59 4.59 0 0 0 1.25 3.16 11.44 11.44 0 0 0 3 2.37l3.58 1.92a11.54 11.54 0 0 1 3 2.3 4.32 4.32 0 0 1 1.25 3 5.71 5.71 0 0 1-1.83 4.27 6.14 6.14 0 0 1-4.41 1.77 5.82 5.82 0 0 1-4-1.25 3.83 3.83 0 0 1-1.46-2.78q0-1.35 1.58-1.35c.55 0 .84-.23.84-.7a1.72 1.72 0 0 0-.74-1.11 2.32 2.32 0 0 0-1.35-.42 3.62 3.62 0 0 0-2.92 1.2 4.06 4.06 0 0 0-1 2.7 4.45 4.45 0 0 0 2.51 4.16 13 13 0 0 0 6.27 1.37 11.67 11.67 0 0 0 7-2.37 7.6 7.6 0 0 0 3.25-6.5 5.68 5.68 0 0 0-1.23-3.6z" id="path16"/><path class="cls-1" d="M144.4 14.93a4.27 4.27 0 0 0-3.4-1.75 4 4 0 0 0-3.24 1.82 23.62 23.62 0 0 0-2.69 5.53 16.63 16.63 0 0 1 .28-2.42 7.34 7.34 0 0 0 1-3.6c0-1.22-.22-1.84-.65-1.84a3.2 3.2 0 0 0-1.77 1 15 15 0 0 0-1.62 1.56q-.09.09-.21 5.29t-.44 9.56a51.24 51.24 0 0 0-2 12.31 4.74 4.74 0 0 0 .23 1.39c.16.49.41.74.77.74a3.3 3.3 0 0 0 1.67-1 4 4 0 0 0 1.23-1.41 67.59 67.59 0 0 0 1-13.51 6.13 6.13 0 0 0 3.57 1.3 6.56 6.56 0 0 0 5.6-2.9 10.89 10.89 0 0 0 2.11-6.62q0-3.71-1.44-5.45zm-3.16 11.42q-1.43 1.88-2.78 1.88a5.09 5.09 0 0 1-3.76-1.3q0-.74.09-2 2.83-9.24 5.06-9.24 1.3 0 2.07 1.65a10.68 10.68 0 0 1 .76 4.41 7.39 7.39 0 0 1-1.44 4.6z" id="path18"/><path class="cls-1" d="M163.36 17.6c-.17 0-.33.13-.46.37s-.33.65-.58 1.21q-.45 1.07-1 2.05A25.52 25.52 0 0 1 159 25a7.15 7.15 0 0 1-2 1.86 4.88 4.88 0 0 1-2.51.65 3 3 0 0 1-2.49-1.35 5.9 5.9 0 0 1-1.24-3.16 9.29 9.29 0 0 0 5.74-2 5.75 5.75 0 0 0 2.34-4.66 2.91 2.91 0 0 0-1-2.35 3.92 3.92 0 0 0-2.6-.86 6.83 6.83 0 0 0-5.53 2.6q-2.14 2.6-2.13 7.66a7.1 7.1 0 0 0 1.53 4.48 5 5 0 0 0 4.13 2q4.5 0 7.57-5l.38-.64q2.45-4.17 2.45-6.33c-.02-.18-.11-.3-.28-.3zM152 16.92q1.12-2.26 2.74-2.25 1.35 0 1.35 2.09a4.64 4.64 0 0 1-1.28 3.39 7.18 7.18 0 0 1-4 1.76 12 12 0 0 1 1.19-4.99z" id="path20"/><path class="cls-1" d="M176.78 17.6c-.17 0-.33.13-.46.37s-.33.65-.58 1.21c-.34.78-.7 1.54-1.08 2.26A26 26 0 0 1 172.4 25a7.15 7.15 0 0 1-2 1.86 4.91 4.91 0 0 1-2.53.65 2.83 2.83 0 0 1-2.44-1.51 6.78 6.78 0 0 1-1-3.83 11.32 11.32 0 0 1 1.25-4.94q1.25-2.58 3-2.58a1 1 0 0 1 .84.42 1.48 1.48 0 0 1 .32.93l-.37 2.37c0 .59.26.88.79.88a1.91 1.91 0 0 0 1.58-.88 4.52 4.52 0 0 0 .65-2.69 2.29 2.29 0 0 0-.86-1.74 3.4 3.4 0 0 0-2.34-.77 7.26 7.26 0 0 0-5.83 2.76 10.29 10.29 0 0 0-2.11 5.28 19.15 19.15 0 0 0-.19 2.77v.29a6.74 6.74 0 0 0 1.37 3.73 4.65 4.65 0 0 0 4 1.88 7.46 7.46 0 0 0 5.81-2.6 18.59 18.59 0 0 0 1.83-2.39c.1-.16.21-.34.32-.53q.63-1.07 1.47-2.74A8.48 8.48 0 0 0 177 18c0-.28 0-.4-.22-.4z" id="path22"/><path class="cls-1" d="M178.62 4.92a2.89 2.89 0 0 0-1.58.6 1.74 1.74 0 0 0-.88 1.48c0 2 .3 2.92.88 2.92a2.41 2.41 0 0 0 2.09-1 4.17 4.17 0 0 0 .74-2.48q0-1.52-1.25-1.52zm6.11 12.67q-.3 0-1.67 3l-.44.94a27 27 0 0 1-2.33 4q-1.39 1.93-2.18 2-.28 0-.28-1.25 0-6.5.6-8a7.38 7.38 0 0 0 .57-1.98 11.81 11.81 0 0 0 .26-1.81c0-1.18-.22-1.77-.67-1.77a3.47 3.47 0 0 0-1.88 1 9 9 0 0 0-1.44 1.39 27.54 27.54 0 0 0-.53 5c0 .44-.06.86-.08 1.26q-.1 1.68-.16 2.95c0 1-.07 1.84-.07 2.46a4.48 4.48 0 0 0 .33 2.32 4.33 4.33 0 0 0 2.74.74q2.14 0 5.12-5.69.51-1 1-2.11A11.25 11.25 0 0 0 185 18c0-.28-.07-.4-.28-.4z" id="path24"/><path class="cls-1" d="M202.83 17.6q-.3 0-1.67 3-.4.88-.8 1.67a24.57 24.57 0 0 1-2 3.28c-.93 1.28-1.66 1.94-2.18 2q-.28 0-.28-1.25 0-6.5.42-7.57a7.36 7.36 0 0 0 .58-1.95 12.26 12.26 0 0 0 .26-1.81c0-1.18-.23-1.77-.67-1.77a2.92 2.92 0 0 0-1.63.72 6.64 6.64 0 0 0-1.32 1.23q-1.86-2-3.35-2a6.57 6.57 0 0 0-5.55 2.88 10.66 10.66 0 0 0-2.06 5.49c0 .37-.05.74-.05 1.13 0 .54 0 1.05.07 1.53a7.29 7.29 0 0 0 1.4 3.98 4.08 4.08 0 0 0 3.25 1.74 3.74 3.74 0 0 0 3-1.46 18 18 0 0 0 2.39-4.44c-.06 1.49-.09 2.67-.09 3.55a2.61 2.61 0 0 0 .33 1.65 4.31 4.31 0 0 0 2.74.74q2 0 4.75-5 .69-1.25 1.43-2.82a11.29 11.29 0 0 0 1.33-4.12c0-.28-.13-.4-.3-.4zm-9.7.91c0 .6-.09 1-.12 1.28q-3 7.66-4.5 7.66-1.25 0-2-1.67a10.26 10.26 0 0 1-.77-4.27 7.27 7.27 0 0 1 1.44-4.51q1.47-2 2.77-2a3.54 3.54 0 0 1 1.84.67 4.29 4.29 0 0 1 1.46 1.42c-.04.35-.08.81-.12 1.41z" id="path26"/><path class="cls-1" d="M211 17.6q-.3 0-1.67 3a28.86 28.86 0 0 1-2.76 4.95q-1.39 1.93-2.18 2-.51 0-.51-2.85T204 18q3.67-7.47 3.67-13.51a4.56 4.56 0 0 0-.37-1.74 1.26 1.26 0 0 0-1.21-.91q-3.57 0-4.55 7.38a128.45 128.45 0 0 0-1.15 13.09v2.65q.06 3.77.45 4.24a2.35 2.35 0 0 0 1 .48 6.52 6.52 0 0 0 1.88.26q2.51 0 6.18-7.8a11.29 11.29 0 0 0 1.36-4.14c0-.28-.1-.4-.26-.4zm-4.9-14.21c.25 0 .37.49.37 1.48q0 3.72-2.41 10.08.65-11.56 2.04-11.56z" id="path28"/></g></g></svg>